<svg width="294" height="177" viewBox="0 0 294 177" fill="none" xmlns="http://www.w3.org/2000/svg">
<g clip-path="url(#clip0_26_4)">
<rect width="294" height="177" fill="white"/>
<rect width="294" height="177" fill="#D9D9D9"/>
<path d="M35.2667 64.6373C37.2862 64.6373 38.7653 64.0684 39.704 62.9307C40.6427 61.7929 41.112 60.4418 41.112 58.8773V55.8907C41.112 54.0418 40.5147 52.7333 39.32 51.9653C38.1253 51.1689 36.7742 50.7707 35.2667 50.7707H31.9387V64.6373H35.2667ZM40.5147 35.7947C40.5147 34.088 40.0453 32.9076 39.1067 32.2533C38.168 31.5707 36.8169 31.2293 35.0533 31.2293H31.9387V43.56H35.3947C37.0444 43.56 38.3102 42.92 39.192 41.64C40.0738 40.3316 40.5147 38.7387 40.5147 36.8613V35.7947ZM38.168 73.384C35.9493 73.384 33.0764 73.3271 29.5493 73.2133C26.0222 73.0996 23.4907 73.0284 21.9547 73H17.8587V22.9947H25.24C27.032 22.9947 29.08 22.9378 31.384 22.824C33.688 22.6818 35.352 22.6107 36.376 22.6107C39.704 22.6107 42.5058 22.8809 44.7813 23.4213C47.0853 23.9618 48.8916 24.7724 50.2 25.8533C51.5084 26.9342 52.4329 28.1858 52.9733 29.608C53.5422 31.0302 53.8267 32.7227 53.8267 34.6853C53.8267 37.7004 53.1298 40.2889 51.736 42.4507C50.3422 44.6124 48.3227 45.9636 45.6773 46.504C52.3902 47.1013 55.7467 51.0409 55.7467 58.3227C55.7467 60.5129 55.4196 62.504 54.7653 64.296C54.1111 66.0596 53.1013 67.6382 51.736 69.032C50.3991 70.3973 48.5787 71.464 46.2747 72.232C43.9707 73 41.2684 73.384 38.168 73.384ZM78.635 69.2027L78.2083 69.672C77.9239 70.0133 77.483 70.4116 76.8857 70.8667C76.3168 71.3218 75.6483 71.7769 74.8803 72.232C74.1408 72.6871 73.2306 73.0711 72.1497 73.384C71.0688 73.7253 69.9594 73.896 68.8217 73.896C61.1417 73.896 57.3017 70.0987 57.3017 62.504C57.3017 61.0249 57.5719 59.6738 58.1123 58.4507C58.6528 57.1991 59.3497 56.1467 60.203 55.2933C61.0563 54.44 62.0803 53.6862 63.275 53.032C64.4697 52.3493 65.6643 51.8231 66.859 51.4533C68.0821 51.0551 69.3621 50.728 70.699 50.472C72.0359 50.216 73.2306 50.0453 74.283 49.96C75.3354 49.8747 76.3452 49.832 77.3123 49.832V49.064C77.3123 47.3289 76.843 46.1058 75.9043 45.3947C74.9941 44.6836 73.515 44.328 71.467 44.328C69.7034 44.328 67.8688 44.5413 65.963 44.968C64.0572 45.3662 62.5639 45.8498 61.483 46.4187L58.7523 40.616C60.6866 39.3644 63.2039 38.2693 66.3043 37.3307C69.4048 36.3636 72.5621 35.88 75.7763 35.88C78.6208 35.88 80.9674 36.1644 82.8163 36.7333C84.6652 37.2738 86.1586 38.2124 87.2963 39.5493C88.4626 40.8578 89.2874 42.536 89.771 44.584C90.2546 46.6036 90.4963 49.1778 90.4963 52.3067V69.672L91.691 73H80.0003L78.635 69.2027ZM75.2643 66.3867C75.6341 66.3867 75.9754 66.3156 76.2883 66.1733C76.6297 66.0027 76.8857 65.8462 77.0563 65.704C77.227 65.5333 77.3123 65.448 77.3123 65.448V55.208C75.5772 55.208 74.1977 55.6916 73.1737 56.6587C72.1497 57.5973 71.6377 59.0622 71.6377 61.0533C71.6377 64.6089 72.8466 66.3867 75.2643 66.3867ZM109.734 73H95.953V45.3947L93.393 43.816V39.2507L102.566 36.7333H109.82V42.2373L110.332 41.5973C110.673 41.1422 111.171 40.6018 111.825 39.976C112.508 39.3502 113.261 38.7387 114.086 38.1413C114.911 37.5156 115.893 36.9893 117.03 36.5627C118.197 36.1076 119.334 35.88 120.444 35.88C124.341 35.88 127.085 36.9467 128.678 39.08C130.3 41.2133 131.11 44.7831 131.11 49.7893C131.11 49.96 131.11 50.216 131.11 50.5573C131.082 50.8987 131.068 51.1689 131.068 51.368V73H116.988V50.1307C117.073 47.4569 115.935 46.12 113.574 46.12C113.404 46.12 113.233 46.1342 113.062 46.1627C112.92 46.1911 112.778 46.2196 112.636 46.248C112.522 46.2764 112.38 46.3333 112.209 46.4187C112.067 46.4756 111.939 46.5324 111.825 46.5893C111.711 46.6178 111.583 46.6889 111.441 46.8027C111.299 46.888 111.185 46.9591 111.1 47.016C111.014 47.0729 110.886 47.1724 110.716 47.3147C110.573 47.4284 110.46 47.5138 110.374 47.5707C110.317 47.6276 110.204 47.7271 110.033 47.8693C109.891 47.9831 109.791 48.0684 109.734 48.1253V73ZM164.997 69.4587L164.613 69.928C164.357 70.2124 163.902 70.5822 163.248 71.0373C162.622 71.464 161.854 71.9049 160.944 72.36C160.062 72.7867 158.867 73.1422 157.36 73.4267C155.881 73.7396 154.288 73.896 152.581 73.896C146.807 73.896 142.384 72.2036 139.312 68.8187C136.268 65.4338 134.746 60.9538 134.746 55.3787C134.746 52.3636 135.216 49.6187 136.154 47.144C137.093 44.6693 138.373 42.6213 139.994 41C141.644 39.3502 143.564 38.0844 145.754 37.2027C147.973 36.2924 150.362 35.8373 152.922 35.8373C157.872 35.8373 161.712 37.0178 164.442 39.3787C165.04 39.976 165.338 40.2747 165.338 40.2747L164.698 50.3013L158.64 50.344L156.208 43.816C155.98 43.7591 155.667 43.7307 155.269 43.7307C152.681 43.7307 150.889 44.6267 149.893 46.4187C148.926 48.1822 148.442 51.2542 148.442 55.6347C148.442 57.5404 148.599 59.176 148.912 60.5413C149.225 61.8782 149.58 62.888 149.978 63.5707C150.377 64.2249 150.903 64.7369 151.557 65.1067C152.24 65.4764 152.794 65.6898 153.221 65.7467C153.648 65.8036 154.174 65.832 154.8 65.832C156.222 65.832 157.673 65.6613 159.152 65.32C160.659 64.9787 161.897 64.424 162.864 63.656L164.997 69.4587ZM186.73 68.776C187.982 68.776 188.934 68.264 189.589 67.24C190.271 66.1876 190.613 64.7511 190.613 62.9307V49.448C190.613 43.9013 189.304 41.128 186.687 41.128C185.464 41.128 184.511 41.6258 183.829 42.6213C183.146 43.6169 182.805 45.0249 182.805 46.8453V60.712C182.805 66.088 184.113 68.776 186.73 68.776ZM186.389 73.896C179.875 73.896 175.11 72.4169 172.095 69.4587C169.08 66.5004 167.573 61.7787 167.573 55.2933C167.573 48.8649 169.094 44.0293 172.138 40.7867C175.182 37.5156 180.131 35.88 186.986 35.88C193.67 35.88 198.492 37.4444 201.45 40.5733C204.437 43.6738 205.93 48.3813 205.93 54.696C205.93 61.2382 204.351 66.0738 201.194 69.2027C198.065 72.3316 193.13 73.896 186.389 73.896Z" fill="black"/>
<path d="M208.812 149.905L208.368 150.448C208.039 150.777 207.48 151.204 206.691 151.731C205.934 152.224 205.013 152.734 203.928 153.26C202.876 153.753 201.461 154.164 199.685 154.493C197.909 154.855 196.002 155.036 193.963 155.036C189.654 155.036 185.971 154.329 182.912 152.915C179.853 151.468 177.452 149.379 175.709 146.649C173.999 143.887 172.766 140.779 172.009 137.325C171.253 133.839 170.875 129.81 170.875 125.239C170.875 120.371 171.253 116.178 172.009 112.659C172.766 109.107 174.016 105.999 175.759 103.335C177.535 100.638 179.968 98.6151 183.06 97.2667C186.152 95.9182 189.917 95.244 194.357 95.244C196.396 95.244 198.304 95.4249 200.08 95.7867C201.889 96.1484 203.303 96.5596 204.323 97.02C205.375 97.4804 206.312 98.0067 207.135 98.5987C207.99 99.1907 208.516 99.6018 208.713 99.832C208.944 100.062 209.108 100.243 209.207 100.375L208.467 111.721H200.968L198.403 105.851C197.811 105.686 197.317 105.604 196.923 105.604C194.719 105.604 193.025 106.114 191.841 107.133C190.657 108.12 189.753 110.077 189.128 113.004C188.503 115.898 188.191 120.075 188.191 125.535C188.191 128.791 188.388 131.636 188.783 134.069C189.21 136.503 189.72 138.378 190.312 139.693C190.904 140.976 191.611 142.012 192.433 142.801C193.256 143.591 193.996 144.1 194.653 144.331C195.311 144.528 196.018 144.627 196.775 144.627C198.452 144.627 200.212 144.429 202.053 144.035C203.895 143.607 205.408 142.966 206.592 142.111L208.812 149.905ZM249.714 149.905L249.27 150.448C248.941 150.777 248.382 151.204 247.593 151.731C246.837 152.224 245.916 152.734 244.83 153.26C243.778 153.753 242.364 154.164 240.588 154.493C238.812 154.855 236.904 155.036 234.865 155.036C230.557 155.036 226.873 154.329 223.814 152.915C220.756 151.468 218.355 149.379 216.612 146.649C214.901 143.887 213.668 140.779 212.912 137.325C212.155 133.839 211.777 129.81 211.777 125.239C211.777 120.371 212.155 116.178 212.912 112.659C213.668 109.107 214.918 105.999 216.661 103.335C218.437 100.638 220.871 98.6151 223.962 97.2667C227.054 95.9182 230.82 95.244 235.26 95.244C237.299 95.244 239.206 95.4249 240.982 95.7867C242.791 96.1484 244.205 96.5596 245.225 97.02C246.277 97.4804 247.215 98.0067 248.037 98.5987C248.892 99.1907 249.418 99.6018 249.616 99.832C249.846 100.062 250.01 100.243 250.109 100.375L249.369 111.721H241.87L239.305 105.851C238.713 105.686 238.22 105.604 237.825 105.604C235.621 105.604 233.928 106.114 232.744 107.133C231.56 108.12 230.655 110.077 230.03 113.004C229.405 115.898 229.093 120.075 229.093 125.535C229.093 128.791 229.29 131.636 229.685 134.069C230.113 136.503 230.622 138.378 231.214 139.693C231.806 140.976 232.513 142.012 233.336 142.801C234.158 143.591 234.898 144.1 235.556 144.331C236.213 144.528 236.921 144.627 237.677 144.627C239.354 144.627 241.114 144.429 242.956 144.035C244.797 143.607 246.31 142.966 247.494 142.111L249.714 149.905Z" fill="black"/>
<path d="M64.5893 124L63.7573 121.248C63.6436 121.447 63.5084 121.646 63.352 121.845C63.2098 122.044 62.9751 122.3 62.648 122.613C62.3209 122.912 61.9724 123.175 61.6027 123.403C61.2329 123.63 60.7707 123.829 60.216 124C59.6613 124.171 59.0782 124.256 58.4667 124.256C56.12 124.256 54.3991 123.452 53.304 121.845C52.2089 120.238 51.6613 118.005 51.6613 115.147C51.6613 113.355 51.9173 111.762 52.4293 110.368C52.9413 108.96 53.7449 107.829 54.84 106.976C55.9351 106.123 57.2578 105.696 58.808 105.696C59.7324 105.696 60.5573 105.796 61.2827 105.995C62.008 106.194 62.6338 106.436 63.16 106.72V100.256L60.8133 99.4667V97.12L68.3653 96.0533H70.0293V124H64.5893ZM61.5813 120.075C61.8373 120.075 62.1004 120.032 62.3707 119.947C62.6409 119.847 62.904 119.712 63.16 119.541V108.811C62.7191 108.711 62.3138 108.661 61.944 108.661C60.0524 108.676 59.0996 110.133 59.0853 113.035V116.021C59.0853 117.358 59.32 118.368 59.7893 119.051C60.2587 119.733 60.856 120.075 61.5813 120.075ZM82.13 122.101L81.9167 122.336C81.7744 122.507 81.554 122.706 81.2553 122.933C80.9709 123.161 80.6367 123.388 80.2527 123.616C79.8829 123.844 79.4278 124.036 78.8873 124.192C78.3469 124.363 77.7922 124.448 77.2233 124.448C73.3833 124.448 71.4633 122.549 71.4633 118.752C71.4633 118.012 71.5984 117.337 71.8687 116.725C72.1389 116.1 72.4873 115.573 72.914 115.147C73.3407 114.72 73.8527 114.343 74.45 114.016C75.0473 113.675 75.6447 113.412 76.242 113.227C76.8536 113.028 77.4936 112.864 78.162 112.736C78.8304 112.608 79.4278 112.523 79.954 112.48C80.4802 112.437 80.9851 112.416 81.4687 112.416V112.032C81.4687 111.164 81.234 110.553 80.7647 110.197C80.3096 109.842 79.57 109.664 78.546 109.664C77.6642 109.664 76.7469 109.771 75.794 109.984C74.8411 110.183 74.0944 110.425 73.554 110.709L72.1887 107.808C73.1558 107.182 74.4144 106.635 75.9647 106.165C77.5149 105.682 79.0936 105.44 80.7007 105.44C82.1229 105.44 83.2962 105.582 84.2207 105.867C85.1451 106.137 85.8918 106.606 86.4607 107.275C87.0438 107.929 87.4562 108.768 87.698 109.792C87.9398 110.802 88.0607 112.089 88.0607 113.653V122.336L88.658 124H82.8127L82.13 122.101ZM80.4447 120.693C80.6296 120.693 80.8002 120.658 80.9567 120.587C81.1273 120.501 81.2553 120.423 81.3407 120.352C81.426 120.267 81.4687 120.224 81.4687 120.224V115.104C80.6011 115.104 79.9113 115.346 79.3993 115.829C78.8873 116.299 78.6313 117.031 78.6313 118.027C78.6313 119.804 79.2358 120.693 80.4447 120.693Z" fill="black"/>
<path d="M248.722 58.1772L243.793 56.0849L245.277 52.5895C244.207 51.8723 243.364 51.1283 242.748 50.3573C242.152 49.5787 241.741 48.8714 241.517 48.2354L244.033 43.6719C244.264 44.6198 244.718 45.5538 245.393 46.474C246.074 47.3811 246.938 48.057 247.986 48.5015C249.033 48.9461 249.833 49.1543 250.386 49.1263C250.952 49.1038 251.36 48.798 251.61 48.2088C251.876 47.5804 251.836 46.9298 251.488 46.2568C251.153 45.5894 250.471 44.6664 249.442 43.4879C249.187 43.1788 248.973 42.9181 248.8 42.7058C248.628 42.4935 248.401 42.1731 248.119 41.7445C247.851 41.3215 247.632 40.9273 247.462 40.5619C247.293 40.1964 247.128 39.7479 246.968 39.2162C246.82 38.6901 246.731 38.1731 246.699 37.6653C246.68 37.163 246.719 36.5998 246.814 35.9757C246.927 35.3441 247.117 34.7141 247.384 34.0857C247.912 32.842 248.56 31.8425 249.329 31.0873C250.111 30.3376 250.972 29.8378 251.912 29.5881C252.871 29.3308 253.93 29.2935 255.088 29.4762L256.522 26.0986L261.451 28.1908L260.092 31.3917C260.624 31.741 261.097 32.1194 261.511 32.5269C261.938 32.94 262.254 33.3059 262.459 33.6245C262.682 33.9356 262.864 34.2524 263.005 34.575C263.165 34.8901 263.261 35.1008 263.293 35.2071C263.325 35.3134 263.343 35.3983 263.347 35.4618L260.757 38.8351C260.502 38.0161 260.049 37.2987 259.399 36.6828C258.768 36.0594 258.105 35.6004 257.411 35.3059C255.735 34.5946 254.675 34.7626 254.231 35.81C254.114 36.0849 254.061 36.3558 254.071 36.6229C254.081 36.8899 254.165 37.165 254.323 37.4483C254.481 37.7317 254.63 37.9804 254.771 38.1947C254.925 38.4145 255.137 38.6977 255.407 39.0441C255.696 39.383 255.907 39.6502 256.04 39.8458C257.607 41.4689 258.599 43.0257 259.017 44.5164C259.448 46.0126 259.325 47.5593 258.647 49.1565C257.735 51.3035 256.563 52.8454 255.13 53.7823C253.703 54.706 252.062 55.0058 250.206 54.6817L248.722 58.1772Z" fill="#275711"/>
<path d="M33.9626 168.275L29.1296 170.58L27.4948 167.153C26.2482 167.48 25.1324 167.618 24.1473 167.568C23.1689 167.499 22.3672 167.337 21.7421 167.084L19.9917 162.175C20.8548 162.63 21.8547 162.91 22.9915 163.014C24.1221 163.105 25.2009 162.905 26.2279 162.415C27.2548 161.926 27.9409 161.464 28.2861 161.032C28.6441 160.593 28.6854 160.085 28.4099 159.507C28.116 158.891 27.6018 158.49 26.8673 158.305C26.1456 158.114 25.0025 158.013 23.4377 158.003C23.0372 157.989 22.7003 157.976 22.4269 157.965C22.1536 157.953 21.7632 157.911 21.2556 157.838C20.7609 157.759 20.3206 157.662 19.9347 157.546C19.5488 157.431 19.1035 157.257 18.5989 157.025C18.1071 156.787 17.6606 156.512 17.2593 156.199C16.8708 155.88 16.4743 155.478 16.0698 154.994C15.6721 154.49 15.3262 153.93 15.0323 153.314C14.4507 152.094 14.1317 150.947 14.0753 149.871C14.0318 148.788 14.2281 147.812 14.6641 146.942C15.1069 146.054 15.7805 145.236 16.685 144.49L15.1053 141.178L19.9383 138.872L21.4353 142.011C22.0491 141.844 22.6459 141.741 23.2255 141.701C23.818 141.654 24.3013 141.66 24.6756 141.718C25.0566 141.757 25.4146 141.83 25.7498 141.939C26.0916 142.028 26.313 142.095 26.4139 142.142C26.5149 142.188 26.5904 142.231 26.6406 142.27L27.4504 146.445C26.6681 146.094 25.8309 145.957 24.9388 146.036C24.0535 146.096 23.2706 146.288 22.5903 146.613C20.9472 147.396 20.3705 148.302 20.8604 149.329C20.9889 149.598 21.1566 149.818 21.3634 149.987C21.5702 150.156 21.832 150.276 22.1487 150.345C22.4655 150.415 22.7508 150.468 23.0046 150.504C23.2712 150.534 23.6237 150.563 24.0622 150.591C24.5073 150.599 24.8473 150.618 25.0821 150.648C27.3359 150.55 29.1595 150.838 30.5528 151.513C31.959 152.181 33.0356 153.299 33.7826 154.865C34.7867 156.97 35.1649 158.87 34.9171 160.564C34.6632 162.245 33.8001 163.673 32.3279 164.848L33.9626 168.275Z" fill="#275711"/>
</g>
<defs>
<clipPath id="clip0_26_4">
<rect width="294" height="177" fill="white"/>
</clipPath>
</defs>
</svg>
